# xmcd CD database file
#
# Track frame offsets:
#	150
#	21702
#	37682
#	63377
#	81180
#	103242
#	126517
#	152887
#	168787
#	193452
#	207872
#
# Disc length: 2988 seconds
#
# Revision: 1
# Processed by: cddbd v1.4PL0 Copyright (c) Steve Scherf et al.
# Submitted via: CDex 1.50beta10
#
DISCID=9c0baa0b
DTITLE=Johnnie Bassett and The Blues Insurgents - Party My Blues Away
DYEAR=1999
DGENRE=Blues
TTITLE0=Big Boss Woman
TTITLE1=Party My Blues Away
TTITLE2=Call Your Mama's Name
TTITLE3=Money Back Guarantee
TTITLE4=Wonderin' Blues
TTITLE5=Good Good Goodies
TTITLE6=Kissin' Me Goodbye
TTITLE7=Real Good Feeling
TTITLE8=Johnnie's Boogaloo
TTITLE9=I'll Get Around To You
TTITLE10=Send You Thru 2000
EXTD=YEAR: 1999
EXTT0=
EXTT1=
EXTT2=
EXTT3=
EXTT4=
EXTT5=
EXTT6=
EXTT7=
EXTT8=
EXTT9=
EXTT10=
PLAYORDER=
